<svg width="28" height="25" viewBox="0 0 28 25" fill="none" xmlns="http://www.w3.org/2000/svg">
<path d="M0.875 22.3125H27.1231V24.1875H0.875V22.3125ZM14 15.75C14.9942 15.7512 15.9473 16.1467 16.6503 16.8497C17.3533 17.5527 17.7488 18.5058 17.75 19.5H19.625C19.625 18.0082 19.0324 16.5774 17.9775 15.5225C16.9226 14.4676 15.4918 13.875 14 13.875C12.5082 13.875 11.0774 14.4676 10.0225 15.5225C8.96763 16.5774 8.375 18.0082 8.375 19.5H10.25C10.2512 18.5058 10.6467 17.5527 11.3497 16.8497C12.0527 16.1467 13.0058 15.7512 14 15.75ZM22.4375 17.625H27.125V19.5H22.4375V17.625ZM19.3316 12.8438L22.6184 9.55594L23.9441 10.8816L20.6572 14.1684L19.3316 12.8438ZM14 0.75L9.3125 5.4375L10.6344 6.75937L13.0625 4.34062V11.0625H14.9375V4.34062L17.3656 6.75937L18.6875 5.4375L14 0.75ZM4.05594 10.8816L5.38156 9.55594L8.66844 12.8428L7.34375 14.1684L4.05594 10.8816ZM0.875 17.625H5.5625V19.5H0.875V17.625Z" fill="#100C57"/>
</svg>
