<svg width="27" height="25" viewBox="0 0 27 25" fill="none" xmlns="http://www.w3.org/2000/svg">
<path d="M26.625 2.6875L0.376875 2.6875V0.8125L26.625 0.8125V2.6875ZM13.5 9.25C12.5058 9.24876 11.5527 8.85327 10.8497 8.15028C10.1467 7.44729 9.75124 6.49418 9.75 5.5H7.875C7.875 6.99184 8.46763 8.42258 9.52252 9.47748C10.5774 10.5324 12.0082 11.125 13.5 11.125C14.9918 11.125 16.4226 10.5324 17.4775 9.47748C18.5324 8.42258 19.125 6.99184 19.125 5.5H17.25C17.2488 6.49418 16.8533 7.44729 16.1503 8.15028C15.4473 8.85327 14.4942 9.24876 13.5 9.25ZM5.0625 7.375H0.375V5.5H5.0625V7.375ZM8.16844 12.1562L4.88156 15.4441L3.55594 14.1184L6.84281 10.8316L8.16844 12.1562ZM13.5 24.25L18.1875 19.5625L16.8656 18.2406L14.4375 20.6594L14.4375 13.9375H12.5625L12.5625 20.6594L10.1344 18.2406L8.8125 19.5625L13.5 24.25ZM23.4441 14.1184L22.1184 15.4441L18.8316 12.1572L20.1563 10.8316L23.4441 14.1184ZM26.625 7.375H21.9375L21.9375 5.5H26.625V7.375Z" fill="#C9C9C9"/>
</svg>
