<svg width="31" height="30" viewBox="0 0 31 30" fill="none" xmlns="http://www.w3.org/2000/svg">
<path d="M24.875 15C24.875 14.7514 24.9738 14.5129 25.1496 14.3371C25.3254 14.1613 25.5639 14.0625 25.8125 14.0625C26.0611 14.0625 26.2996 14.1613 26.4754 14.3371C26.6512 14.5129 26.75 14.7514 26.75 15V25.3125C26.75 25.5611 26.6512 25.7996 26.4754 25.9754C26.2996 26.1512 26.0611 26.25 25.8125 26.25H5.1875C4.93886 26.25 4.7004 26.1512 4.52459 25.9754C4.34877 25.7996 4.25 25.5611 4.25 25.3125V4.6875C4.25 4.43886 4.34877 4.2004 4.52459 4.02459C4.7004 3.84877 4.93886 3.75 5.1875 3.75H15.5C15.7486 3.75 15.9871 3.84877 16.1629 4.02459C16.3387 4.2004 16.4375 4.43886 16.4375 4.6875C16.4375 4.93614 16.3387 5.1746 16.1629 5.35041C15.9871 5.52623 15.7486 5.625 15.5 5.625H6.125V24.375H24.875V15Z" fill="#C9C9C9"/>
<path d="M14.2686 16.2376L15.8155 16.0164L25.318 6.51573C25.4075 6.42925 25.4789 6.3258 25.5281 6.21142C25.5772 6.09704 25.603 5.97402 25.6041 5.84954C25.6052 5.72506 25.5815 5.60161 25.5344 5.4864C25.4872 5.37118 25.4176 5.26651 25.3296 5.17848C25.2416 5.09046 25.1369 5.02085 25.0217 4.97371C24.9065 4.92657 24.783 4.90285 24.6585 4.90393C24.534 4.90501 24.411 4.93087 24.2966 4.98001C24.1823 5.02914 24.0788 5.10056 23.9923 5.1901L14.488 14.6907L14.2667 16.2376H14.2686ZM26.6436 3.8626C26.9049 4.12379 27.1123 4.43392 27.2537 4.77526C27.3952 5.11661 27.468 5.48248 27.468 5.85198C27.468 6.22147 27.3952 6.58735 27.2537 6.92869C27.1123 7.27004 26.9049 7.58016 26.6436 7.84135L16.9217 17.5632C16.7783 17.7071 16.5921 17.8006 16.3911 17.8295L13.2973 18.272C13.1532 18.2927 13.0061 18.2795 12.8679 18.2335C12.7297 18.1875 12.6041 18.1099 12.5012 18.0069C12.3982 17.9039 12.3206 17.7783 12.2746 17.6401C12.2286 17.5019 12.2154 17.3549 12.2361 17.2107L12.6786 14.117C12.707 13.9162 12.7998 13.73 12.943 13.5864L22.6667 3.86448C23.1941 3.33722 23.9094 3.04102 24.6551 3.04102C25.4009 3.04102 26.1162 3.33722 26.6436 3.86448V3.8626Z" fill="#C9C9C9"/>
</svg>
